# Blender v3.0.0 OBJ File: 'submarine_v3.blend'
# www.blender.org
mtllib submarine_propeller.mtl
o Cylinder
v -0.028239 0.414220 -1.112938
v -0.028239 0.414220 -0.999851
v 0.053114 0.411770 -1.112938
v 0.053114 0.411770 -0.999851
v 0.132426 0.393496 -1.112938
v 0.132426 0.393496 -0.999851
v 0.206649 0.360100 -1.112938
v 0.206649 0.360100 -0.999851
v 0.272930 0.312866 -1.112938
v 0.272930 0.312866 -0.999851
v 0.328723 0.253608 -1.112938
v 0.328723 0.253608 -0.999851
v 0.371883 0.184604 -1.112938
v 0.371883 0.184604 -0.999851
v 0.400752 0.108506 -1.112938
v 0.400752 0.108506 -0.999851
v 0.414220 0.028239 -1.112938
v 0.414220 0.028239 -0.999851
v 0.411770 -0.053114 -1.112938
v 0.411770 -0.053114 -0.999851
v 0.393496 -0.132426 -1.112938
v 0.393496 -0.132426 -0.999851
v 0.360100 -0.206649 -1.112938
v 0.360100 -0.206649 -0.999851
v 0.312866 -0.272930 -1.112938
v 0.312866 -0.272930 -0.999851
v 0.253608 -0.328723 -1.112938
v 0.253608 -0.328723 -0.999851
v 0.184604 -0.371883 -1.112938
v 0.184604 -0.371883 -0.999851
v 0.108506 -0.400752 -1.112938
v 0.108506 -0.400752 -0.999851
v 0.028239 -0.414220 -1.112938
v 0.028239 -0.414220 -0.999851
v -0.053114 -0.411770 -1.112938
v -0.053114 -0.411770 -0.999851
v -0.132426 -0.393496 -1.112938
v -0.132426 -0.393496 -0.999851
v -0.206649 -0.360100 -1.112938
v -0.206649 -0.360100 -0.999851
v -0.272930 -0.312866 -1.112938
v -0.272930 -0.312866 -0.999851
v -0.328723 -0.253608 -1.112938
v -0.328723 -0.253608 -0.999851
v -0.371883 -0.184604 -1.112938
v -0.371883 -0.184604 -0.999851
v -0.400752 -0.108506 -1.112938
v -0.400752 -0.108506 -0.999851
v -0.414220 -0.028239 -1.112938
v -0.414220 -0.028239 -0.999851
v -0.411770 0.053114 -1.112938
v -0.411770 0.053114 -0.999851
v -0.393496 0.132426 -1.112938
v -0.393496 0.132426 -0.999851
v -0.360100 0.206649 -1.112938
v -0.360100 0.206649 -0.999851
v -0.312866 0.272930 -1.112938
v -0.312866 0.272930 -0.999851
v -0.253608 0.328723 -1.112938
v -0.253608 0.328723 -0.999851
v -0.184604 0.371883 -1.112938
v -0.184604 0.371883 -0.999851
v -0.108506 0.400752 -1.112938
v -0.108506 0.400752 -0.999851
v -0.028239 0.414220 -1.075242
v -0.028239 0.414220 -1.037547
v 0.053114 0.411770 -1.037547
v 0.053114 0.411770 -1.075242
v 0.132426 0.393496 -1.037547
v 0.132426 0.393496 -1.075242
v 0.206649 0.360100 -1.037547
v 0.206649 0.360100 -1.075242
v 0.272930 0.312866 -1.037547
v 0.272930 0.312866 -1.075242
v 0.328723 0.253608 -1.037547
v 0.328723 0.253608 -1.075242
v 0.371883 0.184604 -1.037547
v 0.371883 0.184604 -1.075242
v 0.400752 0.108506 -1.037547
v 0.400752 0.108506 -1.075242
v 0.414220 0.028239 -1.037547
v 0.414220 0.028239 -1.075242
v 0.411770 -0.053114 -1.037547
v 0.411770 -0.053114 -1.075242
v 0.393496 -0.132426 -1.037547
v 0.393496 -0.132426 -1.075242
v 0.360100 -0.206649 -1.037547
v 0.360100 -0.206649 -1.075242
v 0.312866 -0.272930 -1.037547
v 0.312866 -0.272930 -1.075242
v 0.253608 -0.328723 -1.037547
v 0.253608 -0.328723 -1.075242
v 0.184604 -0.371883 -1.037547
v 0.184604 -0.371883 -1.075242
v 0.108506 -0.400752 -1.037547
v 0.108506 -0.400752 -1.075242
v 0.028239 -0.414220 -1.037547
v 0.028239 -0.414220 -1.075242
v -0.053114 -0.411770 -1.037547
v -0.053114 -0.411770 -1.075242
v -0.132426 -0.393496 -1.037547
v -0.132426 -0.393496 -1.075242
v -0.206649 -0.360100 -1.037547
v -0.206649 -0.360100 -1.075242
v -0.272930 -0.312866 -1.037547
v -0.272930 -0.312866 -1.075242
v -0.328723 -0.253608 -1.037547
v -0.328723 -0.253608 -1.075242
v -0.371883 -0.184604 -1.037547
v -0.371883 -0.184604 -1.075242
v -0.400752 -0.108506 -1.037547
v -0.400752 -0.108506 -1.075242
v -0.414220 -0.028239 -1.037547
v -0.414220 -0.028239 -1.075242
v -0.411770 0.053114 -1.037547
v -0.411770 0.053114 -1.075242
v -0.393496 0.132426 -1.037547
v -0.393496 0.132426 -1.075242
v -0.360100 0.206649 -1.037547
v -0.360100 0.206649 -1.075242
v -0.312866 0.272930 -1.037547
v -0.312866 0.272930 -1.075242
v -0.253608 0.328723 -1.037547
v -0.253608 0.328723 -1.075242
v -0.184604 0.371883 -1.037547
v -0.184604 0.371883 -1.075242
v -0.108506 0.400752 -1.037547
v -0.108506 0.400752 -1.075242
v -0.013187 0.913993 -1.075242
v -0.013187 0.913993 -1.037547
v 0.068166 0.911543 -1.037547
v 0.068166 0.911543 -1.075242
v 0.147477 0.893269 -1.037547
v 0.147477 0.893269 -1.075242
v -0.093455 0.900525 -1.037547
v -0.093455 0.900525 -1.075242
v 0.900525 0.093455 -1.037547
v 0.900525 0.093455 -1.075242
v 0.913993 0.013187 -1.037547
v 0.913993 0.013187 -1.075242
v 0.911543 -0.068165 -1.037547
v 0.911543 -0.068165 -1.075242
v 0.893269 -0.147477 -1.037547
v 0.893269 -0.147477 -1.075242
v 0.093455 -0.900525 -1.037547
v 0.093455 -0.900525 -1.075242
v 0.013187 -0.913993 -1.037547
v 0.013187 -0.913993 -1.075242
v -0.068165 -0.911543 -1.037547
v -0.068165 -0.911543 -1.075242
v -0.147477 -0.893269 -1.037547
v -0.147477 -0.893269 -1.075242
v -0.900525 -0.093455 -1.037547
v -0.900525 -0.093455 -1.075242
v -0.913993 -0.013187 -1.037547
v -0.913993 -0.013187 -1.075242
v -0.911543 0.068166 -1.037547
v -0.911543 0.068166 -1.075242
v -0.893269 0.147477 -1.037547
v -0.893269 0.147477 -1.075242
vt 1.000000 0.833333
vt 1.000000 1.000000
vt 0.968750 1.000000
vt 0.968750 0.833333
vt 0.937500 1.000000
vt 0.937500 0.833333
vt 0.906250 1.000000
vt 0.906250 0.833333
vt 0.875000 1.000000
vt 0.875000 0.833333
vt 0.843750 1.000000
vt 0.843750 0.833333
vt 0.812500 1.000000
vt 0.812500 0.833333
vt 0.781250 1.000000
vt 0.781250 0.833333
vt 0.750000 1.000000
vt 0.750000 0.833333
vt 0.718750 1.000000
vt 0.718750 0.833333
vt 0.687500 1.000000
vt 0.687500 0.833333
vt 0.656250 1.000000
vt 0.656250 0.833333
vt 0.625000 1.000000
vt 0.625000 0.833333
vt 0.593750 1.000000
vt 0.593750 0.833333
vt 0.562500 1.000000
vt 0.562500 0.833333
vt 0.531250 1.000000
vt 0.531250 0.833333
vt 0.500000 1.000000
vt 0.500000 0.833333
vt 0.468750 1.000000
vt 0.468750 0.833333
vt 0.437500 1.000000
vt 0.437500 0.833333
vt 0.406250 1.000000
vt 0.406250 0.833333
vt 0.375000 1.000000
vt 0.375000 0.833333
vt 0.343750 1.000000
vt 0.343750 0.833333
vt 0.312500 1.000000
vt 0.312500 0.833333
vt 0.281250 1.000000
vt 0.281250 0.833333
vt 0.250000 1.000000
vt 0.250000 0.833333
vt 0.218750 1.000000
vt 0.218750 0.833333
vt 0.187500 1.000000
vt 0.187500 0.833333
vt 0.156250 1.000000
vt 0.156250 0.833333
vt 0.125000 1.000000
vt 0.125000 0.833333
vt 0.093750 1.000000
vt 0.093750 0.833333
vt 0.062500 1.000000
vt 0.062500 0.833333
vt 0.296822 0.485388
vt 0.250000 0.490000
vt 0.203178 0.485388
vt 0.158156 0.471731
vt 0.116663 0.449553
vt 0.080294 0.419706
vt 0.050447 0.383337
vt 0.028269 0.341844
vt 0.014612 0.296822
vt 0.010000 0.250000
vt 0.014612 0.203178
vt 0.028269 0.158156
vt 0.050447 0.116663
vt 0.080294 0.080294
vt 0.116663 0.050447
vt 0.158156 0.028269
vt 0.203178 0.014612
vt 0.250000 0.010000
vt 0.296822 0.014612
vt 0.341844 0.028269
vt 0.383337 0.050447
vt 0.419706 0.080294
vt 0.449553 0.116663
vt 0.471731 0.158156
vt 0.485388 0.203178
vt 0.490000 0.250000
vt 0.485388 0.296822
vt 0.471731 0.341844
vt 0.449553 0.383337
vt 0.419706 0.419706
vt 0.383337 0.449553
vt 0.341844 0.471731
vt 0.031250 1.000000
vt 0.031250 0.833333
vt 0.000000 1.000000
vt 0.000000 0.833333
vt 0.750000 0.490000
vt 0.796822 0.485388
vt 0.841844 0.471731
vt 0.883337 0.449553
vt 0.919706 0.419706
vt 0.949553 0.383337
vt 0.971731 0.341844
vt 0.985388 0.296822
vt 0.990000 0.250000
vt 0.985388 0.203178
vt 0.971731 0.158156
vt 0.949553 0.116663
vt 0.919706 0.080294
vt 0.883337 0.050447
vt 0.841844 0.028269
vt 0.796822 0.014612
vt 0.750000 0.010000
vt 0.703178 0.014612
vt 0.658156 0.028269
vt 0.616663 0.050447
vt 0.580294 0.080294
vt 0.550447 0.116663
vt 0.528269 0.158156
vt 0.514612 0.203178
vt 0.510000 0.250000
vt 0.514612 0.296822
vt 0.528269 0.341844
vt 0.550447 0.383337
vt 0.580294 0.419706
vt 0.616663 0.449553
vt 0.658156 0.471731
vt 0.703178 0.485388
vt 0.031250 0.500000
vt 0.031250 0.666667
vt 0.000000 0.666667
vt 0.000000 0.500000
vt 0.937500 0.833333
vt 0.968750 0.833333
vt 0.062500 0.500000
vt 0.062500 0.666667
vt 0.093750 0.500000
vt 0.093750 0.666667
vt 0.125000 0.500000
vt 0.125000 0.666667
vt 0.156250 0.500000
vt 0.156250 0.666667
vt 0.187500 0.500000
vt 0.187500 0.666667
vt 0.218750 0.500000
vt 0.218750 0.666667
vt 0.187500 0.666667
vt 0.187500 0.833333
vt 0.250000 0.500000
vt 0.250000 0.666667
vt 0.218750 0.833333
vt 0.281250 0.500000
vt 0.281250 0.666667
vt 0.250000 0.833333
vt 0.312500 0.500000
vt 0.312500 0.666667
vt 0.343750 0.500000
vt 0.343750 0.666667
vt 0.375000 0.500000
vt 0.375000 0.666667
vt 0.406250 0.500000
vt 0.406250 0.666667
vt 0.437500 0.500000
vt 0.437500 0.666667
vt 0.468750 0.500000
vt 0.468750 0.666667
vt 0.468750 0.833333
vt 0.500000 0.833333
vt 0.500000 0.500000
vt 0.500000 0.666667
vt 0.531250 0.666667
vt 0.531250 0.833333
vt 0.531250 0.666667
vt 0.531250 0.500000
vt 0.562500 0.500000
vt 0.562500 0.666667
vt 0.593750 0.500000
vt 0.593750 0.666667
vt 0.625000 0.500000
vt 0.625000 0.666667
vt 0.656250 0.500000
vt 0.656250 0.666667
vt 0.687500 0.500000
vt 0.687500 0.666667
vt 0.718750 0.500000
vt 0.718750 0.666667
vt 0.750000 0.833333
vt 0.781250 0.833333
vt 0.750000 0.500000
vt 0.750000 0.666667
vt 0.718750 0.666667
vt 0.687500 0.666667
vt 0.781250 0.500000
vt 0.781250 0.666667
vt 0.750000 0.666667
vt 0.812500 0.500000
vt 0.812500 0.666667
vt 0.843750 0.500000
vt 0.843750 0.666667
vt 0.875000 0.500000
vt 0.875000 0.666667
vt 0.906250 0.500000
vt 0.906250 0.666667
vt 0.937500 0.500000
vt 0.937500 0.666667
vt 0.968750 0.500000
vt 0.968750 0.666667
vt 1.000000 0.833333
vt 1.000000 0.500000
vt 1.000000 0.666667
vt 0.031250 0.833333
vt 0.031250 0.666667
vt 0.000000 0.833333
vt 0.000000 0.666667
vt 0.968750 0.666667
vt 0.937500 0.666667
vt 1.000000 0.666667
vt 0.718750 0.833333
vt 0.687500 0.833333
vt 0.781250 0.666667
vt 0.468750 0.666667
vt 0.437500 0.833333
vt 0.437500 0.666667
vt 0.500000 0.666667
vt 0.218750 0.666667
vt 0.250000 0.666667
vt 0.281250 0.666667
vt 0.281250 0.833333
vn 0.0301 0.9995 0.0000
vn 0.2245 0.9745 0.0000
vn 0.4103 0.9119 0.0000
vn 0.5803 0.8144 0.0000
vn 0.7281 0.6855 0.0000
vn 0.8478 0.5303 0.0000
vn 0.9350 0.3547 0.0000
vn 0.9862 0.1655 0.0000
vn 0.9995 -0.0301 -0.0000
vn 0.9745 -0.2245 0.0000
vn 0.9119 -0.4103 0.0000
vn 0.8144 -0.5803 0.0000
vn 0.6855 -0.7281 0.0000
vn 0.5303 -0.8478 0.0000
vn 0.3547 -0.9350 0.0000
vn 0.1655 -0.9862 0.0000
vn -0.0301 -0.9995 0.0000
vn -0.2245 -0.9745 0.0000
vn -0.4103 -0.9119 0.0000
vn -0.5803 -0.8144 0.0000
vn -0.7281 -0.6855 0.0000
vn -0.8478 -0.5303 0.0000
vn -0.9350 -0.3547 0.0000
vn -0.9862 -0.1655 0.0000
vn -0.9995 0.0301 0.0000
vn -0.9745 0.2245 0.0000
vn -0.9119 0.4103 0.0000
vn -0.8144 0.5803 0.0000
vn -0.6855 0.7281 0.0000
vn -0.5303 0.8478 0.0000
vn 0.0000 0.0000 1.0000
vn -0.3547 0.9350 0.0000
vn -0.1655 0.9862 0.0000
vn -0.0000 0.0000 -1.0000
usemtl None
s off
f 66/1/1 2/2/1 4/3/1 67/4/1
f 67/4/2 4/3/2 6/5/2 69/6/2
f 69/6/3 6/5/3 8/7/3 71/8/3
f 71/8/4 8/7/4 10/9/4 73/10/4
f 73/10/5 10/9/5 12/11/5 75/12/5
f 75/12/6 12/11/6 14/13/6 77/14/6
f 77/14/7 14/13/7 16/15/7 79/16/7
f 79/16/8 16/15/8 18/17/8 81/18/8
f 81/18/9 18/17/9 20/19/9 83/20/9
f 83/20/10 20/19/10 22/21/10 85/22/10
f 85/22/11 22/21/11 24/23/11 87/24/11
f 87/24/12 24/23/12 26/25/12 89/26/12
f 89/26/13 26/25/13 28/27/13 91/28/13
f 91/28/14 28/27/14 30/29/14 93/30/14
f 93/30/15 30/29/15 32/31/15 95/32/15
f 95/32/16 32/31/16 34/33/16 97/34/16
f 97/34/17 34/33/17 36/35/17 99/36/17
f 99/36/18 36/35/18 38/37/18 101/38/18
f 101/38/19 38/37/19 40/39/19 103/40/19
f 103/40/20 40/39/20 42/41/20 105/42/20
f 105/42/21 42/41/21 44/43/21 107/44/21
f 107/44/22 44/43/22 46/45/22 109/46/22
f 109/46/23 46/45/23 48/47/23 111/48/23
f 111/48/24 48/47/24 50/49/24 113/50/24
f 113/50/25 50/49/25 52/51/25 115/52/25
f 115/52/26 52/51/26 54/53/26 117/54/26
f 117/54/27 54/53/27 56/55/27 119/56/27
f 119/56/28 56/55/28 58/57/28 121/58/28
f 121/58/29 58/57/29 60/59/29 123/60/29
f 123/60/30 60/59/30 62/61/30 125/62/30
f 4/63/31 2/64/31 64/65/31 62/66/31 60/67/31 58/68/31 56/69/31 54/70/31 52/71/31 50/72/31 48/73/31 46/74/31 44/75/31 42/76/31 40/77/31 38/78/31 36/79/31 34/80/31 32/81/31 30/82/31 28/83/31 26/84/31 24/85/31 22/86/31 20/87/31 18/88/31 16/89/31 14/90/31 12/91/31 10/92/31 8/93/31 6/94/31
f 125/62/32 62/61/32 64/95/32 127/96/32
f 127/96/33 64/95/33 2/97/33 66/98/33
f 1/99/34 3/100/34 5/101/34 7/102/34 9/103/34 11/104/34 13/105/34 15/106/34 17/107/34 19/108/34 21/109/34 23/110/34 25/111/34 27/112/34 29/113/34 31/114/34 33/115/34 35/116/34 37/117/34 39/118/34 41/119/34 43/120/34 45/121/34 47/122/34 49/123/34 51/124/34 53/125/34 55/126/34 57/127/34 59/128/34 61/129/34 63/130/34
f 63/131/33 128/132/33 65/133/33 1/134/33
f 67/4/31 69/6/31 133/135/31 131/136/31
f 61/137/32 126/138/32 128/132/32 63/131/32
f 126/138/32 125/62/32 127/96/32 128/132/32
f 59/139/30 124/140/30 126/138/30 61/137/30
f 124/140/30 123/60/30 125/62/30 126/138/30
f 57/141/29 122/142/29 124/140/29 59/139/29
f 122/142/29 121/58/29 123/60/29 124/140/29
f 55/143/28 120/144/28 122/142/28 57/141/28
f 120/144/28 119/56/28 121/58/28 122/142/28
f 53/145/27 118/146/27 120/144/27 55/143/27
f 118/146/27 117/54/27 119/56/27 120/144/27
f 51/147/26 116/148/26 118/146/26 53/145/26
f 117/54/1 118/146/1 160/149/1 159/150/1
f 49/151/25 114/152/25 116/148/25 51/147/25
f 115/52/31 117/54/31 159/150/31 157/153/31
f 47/154/24 112/155/24 114/152/24 49/151/24
f 113/50/31 115/52/31 157/153/31 155/156/31
f 45/157/23 110/158/23 112/155/23 47/154/23
f 110/158/23 109/46/23 111/48/23 112/155/23
f 43/159/22 108/160/22 110/158/22 45/157/22
f 108/160/22 107/44/22 109/46/22 110/158/22
f 41/161/21 106/162/21 108/160/21 43/159/21
f 106/162/21 105/42/21 107/44/21 108/160/21
f 39/163/20 104/164/20 106/162/20 41/161/20
f 104/164/20 103/40/20 105/42/20 106/162/20
f 37/165/19 102/166/19 104/164/19 39/163/19
f 102/166/19 101/38/19 103/40/19 104/164/19
f 35/167/18 100/168/18 102/166/18 37/165/18
f 97/34/31 99/36/31 149/169/31 147/170/31
f 33/171/17 98/172/17 100/168/17 35/167/17
f 96/173/9 95/32/9 145/174/9 146/175/9
f 31/176/16 96/173/16 98/172/16 33/171/16
f 95/32/31 97/34/31 147/170/31 145/174/31
f 29/177/15 94/178/15 96/173/15 31/176/15
f 94/178/15 93/30/15 95/32/15 96/173/15
f 27/179/14 92/180/14 94/178/14 29/177/14
f 92/180/14 91/28/14 93/30/14 94/178/14
f 25/181/13 90/182/13 92/180/13 27/179/13
f 90/182/13 89/26/13 91/28/13 92/180/13
f 23/183/12 88/184/12 90/182/12 25/181/12
f 88/184/12 87/24/12 89/26/12 90/182/12
f 21/185/11 86/186/11 88/184/11 23/183/11
f 86/186/11 85/22/11 87/24/11 88/184/11
f 19/187/10 84/188/10 86/186/10 21/185/10
f 79/16/31 81/18/31 139/189/31 137/190/31
f 17/191/9 82/192/9 84/188/9 19/187/9
f 86/186/34 84/188/34 142/193/34 144/194/34
f 15/195/8 80/196/8 82/192/8 17/191/8
f 84/188/34 82/192/34 140/197/34 142/193/34
f 13/198/7 78/199/7 80/196/7 15/195/7
f 78/199/7 77/14/7 79/16/7 80/196/7
f 11/200/6 76/201/6 78/199/6 13/198/6
f 76/201/6 75/12/6 77/14/6 78/199/6
f 9/202/5 74/203/5 76/201/5 11/200/5
f 74/203/5 73/10/5 75/12/5 76/201/5
f 7/204/4 72/205/4 74/203/4 9/202/4
f 72/205/4 71/8/4 73/10/4 74/203/4
f 5/206/3 70/207/3 72/205/3 7/204/3
f 70/207/3 69/6/3 71/8/3 72/205/3
f 3/208/2 68/209/2 70/207/2 5/206/2
f 66/1/31 67/4/31 131/136/31 130/210/31
f 1/211/1 65/212/1 68/209/1 3/208/1
f 128/132/25 127/96/25 135/213/25 136/214/25
f 136/214/33 135/213/33 130/215/33 129/216/33
f 132/217/2 131/136/2 133/135/2 134/218/2
f 129/219/1 130/210/1 131/136/1 132/217/1
f 65/133/34 128/132/34 136/214/34 129/216/34
f 68/209/34 65/212/34 129/219/34 132/217/34
f 69/6/9 70/207/9 134/218/9 133/135/9
f 70/207/34 68/209/34 132/217/34 134/218/34
f 127/96/31 66/98/31 130/215/31 135/213/31
f 142/193/10 141/220/10 143/221/10 144/194/10
f 140/197/9 139/189/9 141/220/9 142/193/9
f 138/222/8 137/190/8 139/189/8 140/197/8
f 81/18/31 83/20/31 141/220/31 139/189/31
f 85/22/17 86/186/17 144/194/17 143/221/17
f 83/20/31 85/22/31 143/221/31 141/220/31
f 80/196/1 79/16/1 137/190/1 138/222/1
f 82/192/34 80/196/34 138/222/34 140/197/34
f 150/223/18 149/169/18 151/224/18 152/225/18
f 148/226/17 147/170/17 149/169/17 150/223/17
f 146/175/16 145/174/16 147/170/16 148/226/16
f 99/36/31 101/38/31 151/224/31 149/169/31
f 98/172/34 96/173/34 146/175/34 148/226/34
f 100/168/34 98/172/34 148/226/34 150/223/34
f 101/38/25 102/166/25 152/225/25 151/224/25
f 102/166/34 100/168/34 150/223/34 152/225/34
f 158/227/26 157/153/26 159/150/26 160/149/26
f 156/228/25 155/156/25 157/153/25 158/227/25
f 154/229/24 153/230/24 155/156/24 156/228/24
f 114/152/34 112/155/34 154/229/34 156/228/34
f 112/155/17 111/48/17 153/230/17 154/229/17
f 116/148/34 114/152/34 156/228/34 158/227/34
f 118/146/34 116/148/34 158/227/34 160/149/34
f 111/48/31 113/50/31 155/156/31 153/230/31
